# xmcd CD database file
#
# Track frame offsets:
#	150
#	11527
#	25904
#	37975
#	53297
#	66508
#	77351
#	92128
#	103269
#	115782
#	127099
#	142053
#	154904
#	171444
#	182371
#	194520
#	206160
#	216621
#	227420
#	247204
#	260373
#	274315
#	286882
#	298919
#	309996
#	319339
#	334474
#	342900
#
# Disc length: 4840 seconds
#
# Revision: 2
# Processed by: cddbd v1.4PL0 Copyright (c) Steve Scherf et al.
# Submitted via: CDex 1.51
#
DISCID=b512e61c
DTITLE=Frank Sinatra - CD1
DYEAR=1900
DGENRE=Jazz
TTITLE0=Strangers in the Night
TTITLE1=The Girl from ipanema
TTITLE2=Anytime, anywhereo
TTITLE3=Theme from New York New York
TTITLE4=From here to eternity
TTITLE5=I love you
TTITLE6=Moon river
TTITLE7=Lean baby
TTITLE8=South of the border
TTITLE9=Forget Domani
TTITLE10=Rain (falling rom the skies)
TTITLE11=Summer Wino
TTITLE12=A man alone
TTITLE13=Somewhere in your heart
TTITLE14=Dont change your miko about me
TTITLE15=Somethin` Stupid
TTITLE16=Frome the bottom to the top
TTITLE17=how are ya` fixed for love?
TTITLE18=It was a very good year
TTITLE19=[love is] the tender trap
TTITLE20=That`s Lif
TTITLE21=Johnny concho teme [wait for me]
TTITLE22=Tell wer [you love her each day]
TTITLE23=Fly me to the moon
TTITLE24=Who wants to be a mllioner?
TTITLE25=Wen somebody loves you
TTITLE26=When somebody loves you
TTITLE27=My Way
EXTD=
EXTT0=
EXTT1=
EXTT2=
EXTT3=
EXTT4=
EXTT5=
EXTT6=
EXTT7=
EXTT8=
EXTT9=
EXTT10=
EXTT11=
EXTT12=
EXTT13=
EXTT14=
EXTT15=
EXTT16=
EXTT17=
EXTT18=
EXTT19=
EXTT20=
EXTT21=
EXTT22=
EXTT23=
EXTT24=
EXTT25=
EXTT26=
EXTT27=
PLAYORDER=
